<?xml version="1.0" encoding="UTF-8"?>
<svg width="63px" height="37px" viewBox="0 0 63 37" version="1.1" xmlns="http://www.w3.org/2000/svg" xmlns:xlink="http://www.w3.org/1999/xlink">
    <!-- Generator: sketchtool 40.3 (33839) - http://www.bohemiancoding.com/sketch -->
    <title>2DC24727-A970-452D-AE3A-F5BE178EAE35</title>
    <desc>Created with sketchtool.</desc>
    <defs>
        <polygon id="path-1" points="0.146285003 23.0254237 26.9879029 23.0254237 26.9879029 0.0109405402 0.146285003 0.0109405402 0.146285003 23.0254237"></polygon>
    </defs>
    <g id="Mobile" stroke="none" stroke-width="1" fill="none" fill-rule="evenodd">
        <g id="Homepage---Mobile" transform="translate(-129.000000, -60.000000)">
            <g id="Header" transform="translate(0.000000, 55.000000)">
                <g id="Logo" transform="translate(129.000000, 5.000000)">
                    <g id="Page-1">
                        <g id="Group-3" transform="translate(0.000000, 0.107975)" fill="#000000">
                            <path d="M15.4741466,1.63925318 C10.8699372,-0.00723905367 5.63102375,4.50452295 9.34120679,6.54802931 C11.5894332,7.78739018 16.0683977,6.34551024 15.9392664,10.2186656 C15.8247972,13.6538146 8.32016894,16.9347631 5.31570324,17.5581939 C2.32536954,18.1788337 -1.64925877,16.320054 0.722799408,13.8664509 C1.69826152,12.8566465 2.75233295,13.8701141 3.33598504,14.6571649 C4.03286987,15.5977186 6.61160872,15.552191 8.5630629,14.8638704 C10.5145171,14.1757242 15.4525953,12.1139022 13.1375951,9.5249375 C12.2578774,8.54007733 8.90541088,8.87255049 6.6464088,7.64941208 C3.6507756,6.02699188 5.65045527,2.67487394 8.0864608,1.27224188 C10.8745301,-0.333781427 14.8265472,-0.217782133 16.54288,0.928256003 C19.0520187,2.60265784 17.2401181,4.70111123 16.1947026,4.15635064 C15.1491103,3.61228778 16.3056389,1.93631603 15.4741466,1.63925318" id="Fill-1"></path>
                        </g>
                        <path d="M18.6340114,20.0301999 C19.3865411,18.8838129 19.2611195,16.864553 16.8215809,17.0025311 C14.382749,17.1398114 11.5946797,18.5853545 10.5492642,20.5810657 C9.50402524,22.5769513 9.92233278,23.6779852 10.5492642,24.2967062 C11.1765488,24.9168227 11.7342333,24.847572 11.7342333,24.847572 C11.7342333,24.847572 8.66758679,25.8118489 7.13444016,27.6695819 C5.60094023,29.5276638 5.87987081,32.8311144 8.8071404,33.7945191 C11.7342333,34.7577493 15.2884343,33.1747514 17.8671732,31.5922768 C20.445912,30.0091045 20.7250192,29.3903835 19.6096502,28.5642592 C18.4946345,27.7383093 18.6688115,29.0804124 16.36865,30.5259555 C14.0690183,31.970452 11.6515611,32.7281977 9.60224272,31.2826547 C7.55257106,29.8367627 9.50402524,26.6372754 11.7342333,26.0178566 C13.9646181,25.3977401 15.2884343,26.2362493 15.915719,25.5423468 C16.5430037,24.847572 16.229273,23.6779852 15.1490573,23.9185311 C14.4793766,24.067673 13.2672033,24.159077 12.0825874,23.5403559 C10.8979715,22.9205883 11.5946797,20.718346 14.382749,19.4796829 C17.1702883,18.2408453 17.6666752,18.9982422 17.3836817,19.6173121 C17.1005115,20.2370798 16.7521574,20.374709 16.7521574,20.374709 C16.7521574,20.374709 18.1874399,20.7104965 18.6340114,20.0301999" id="Fill-4" fill="#000000"></path>
                        <path d="M18.9898908,8.00405593 C19.5585277,7.96690127 19.7853464,8.11621766 19.3308256,8.7897113 C18.8766581,9.46215833 17.8536771,10.9357855 17.8536771,12.4317403 C17.8536771,13.9269973 18.8010518,13.9365912 19.4444117,13.3379302 C20.0881248,12.7396181 21.1482023,11.5989874 21.6030765,10.5523773 C22.0570673,9.50506935 21.8959624,9.51570989 22.274347,9.55286455 C22.6527316,9.59106582 23.3065138,9.84312444 23.0420686,10.487313 C22.77674,11.1320249 22.2568587,12.8118342 23.0039121,13.3897374 C23.907301,14.0878264 25.3943419,13.3361859 25.8889623,11.5764853 C26.4318082,9.64252415 26.3422466,8.52770989 26.5307323,7.7877565 C26.8432264,6.5602572 28.3288542,6.83656229 28.177465,7.62151992 C28.0262525,8.40717528 27.472101,11.9564048 26.070912,13.5388794 C24.670253,15.1218773 22.9281292,15.6941986 22.1333802,14.9832014 C21.3379246,14.2725531 21.4140608,12.8896322 21.4140608,12.8896322 C21.4140608,12.8896322 20.6440428,14.5354267 19.1545288,15.0214027 C17.6648381,15.5068554 16.831756,14.909241 16.6420337,13.5245757 C16.4523115,12.1414804 16.9073622,11.1213843 17.512919,9.96243799 C18.118829,8.80296836 18.4223139,8.04155946 18.9898908,8.00405593" id="Fill-6" fill="#000000"></path>
                        <path d="M36.4023489,3.82816857 C36.654252,3.68199202 40.0231469,3.42173496 41.7446026,3.06710855 C43.465705,2.71213326 46.0771241,2.23139032 47.0276786,2.05381547 C47.9780564,1.87641504 48.1259125,2.37547366 47.7662528,2.50281123 C47.4064165,2.62927662 43.1685794,3.53285007 41.6608704,3.94748213 C40.153868,4.36106758 38.0310632,4.88873355 36.9962466,4.96199626 C35.9616067,5.0349101 35.965493,4.08197154 36.4023489,3.82816857" id="Fill-8" fill="#000000"></path>
                        <path d="M31.7226745,7.38910268 C32.2983773,7.17280325 32.6269466,7.4838209 32.3261114,7.78193037 C32.023863,8.07899322 31.4629988,8.26773192 31.079138,8.36279901 C30.6954539,8.45751723 30.3534592,8.51141766 30.3534592,8.51141766 C30.4901864,8.29564153 31.1473249,7.60575099 31.7226745,7.38910268 M36.5623586,6.87050734 C37.1498969,6.68961822 37.3535746,7.28444167 36.7503143,7.52777853 C36.4989412,7.62929972 36.2873143,7.67604831 36.0249888,7.71302853 C35.7630166,7.74983432 35.5132333,7.71302853 35.5132333,7.71302853 C35.5132333,7.71302853 35.9753501,7.05017542 36.5623586,6.87050734 M47.9358016,7.98497274 C47.2426265,8.31448051 47.4992991,8.59340212 47.4475406,9.07554054 C47.3966654,9.55767895 46.4976928,11.3217404 44.9815046,12.1839727 C43.4661996,13.0463795 42.2338882,13.5536366 41.1033272,12.5897086 C39.9725896,11.6259551 40.3838312,10.3074007 40.9491117,8.86150876 C41.5145688,7.41561681 42.3621362,5.52456667 43.6460295,4.07884915 C44.9309826,2.63260833 45.4959098,1.97306949 45.3669552,1.33899816 C45.2388838,0.705101271 44.1599047,0.0964974576 43.5693633,0.806971328 C42.9784686,1.51692189 41.3347389,4.7633322 40.6412105,6.69136257 C39.9473287,8.61904407 38.688873,10.0138266 37.8155147,10.5467256 C36.942333,11.0791013 36.0947656,11.152364 35.6322955,10.8491959 C35.1701787,10.5467256 34.9774534,10.2294282 35.0032444,9.46871709 C35.0290353,8.70765706 35.1276061,8.4374572 35.1276061,8.4374572 C35.1276061,8.4374572 36.6335486,8.49188093 37.6614758,7.83303983 C38.688873,7.17350099 38.7657158,5.62573898 37.1479538,5.75307655 C35.9880689,5.8434339 34.9384138,6.53942966 34.4506827,7.83303983 C33.962245,9.12665 34.0401478,10.4066542 34.0401478,10.4066542 C34.0401478,10.4066542 33.8654408,11.095847 33.0122205,11.6358979 C32.401011,12.0227948 31.5970762,12.6020935 30.5717988,12.1332121 C29.7899452,11.7757948 29.674416,11.2205681 29.7155755,10.7098223 C29.7676873,10.0535977 30.0437915,9.30998121 30.0437915,9.30998121 C31.0455745,9.23357867 32.2497985,8.99338164 33.2001763,8.28343107 C34.1500241,7.57313164 34.0989723,6.12758856 32.5319088,6.25422839 C30.9653753,6.38139153 29.3984885,8.01828983 28.833208,9.71815918 C28.3339947,11.2198703 28.2749935,12.739025 29.853186,13.450371 C31.2280541,14.0708364 32.9744174,12.9560222 33.6161874,12.4998746 C34.2584873,12.0430292 34.5280555,11.4979198 34.5280555,11.4979198 C34.5280555,11.4979198 35.0929826,12.512085 36.3256474,12.5642411 C38.6874598,12.6647157 39.3216339,10.6229537 39.3216339,10.6229537 C39.3216339,10.6229537 39.1750142,12.9638718 40.7692818,13.8438965 C42.5161751,14.8079989 44.3655255,14.4783167 46.5234837,12.8286846 C48.6810886,11.1799247 49.8879624,9.60774181 49.7595378,8.64416271 C49.6307598,7.68040918 48.6291535,7.65441836 47.9358016,7.98497274" id="Fill-10" fill="#000000"></path>
                        <path d="M23.5641581,27.6123323 C22.9492389,28.0934242 22.3793655,28.0158006 22.0898359,27.6001219 C21.7637398,27.1312405 22.4477291,26.3694828 22.8413057,26.0349164 C23.2350589,25.7010477 23.8480349,25.292172 23.8480349,25.292172 C24.1940925,25.6066784 24.5689441,26.8256304 23.5641581,27.6123323 M22.8243473,24.0446127 C21.2110015,23.9427427 20.5685249,22.924391 21.0064406,22.1275718 C21.444003,21.3305781 22.1559031,21.1775986 23.0894991,21.2719679 C24.0222119,21.367035 23.9706301,21.2014962 24.562938,20.9030379 C25.1557759,20.6056261 25.0796397,19.8281692 23.2740985,20.0329559 C21.4690873,20.2389637 19.7993901,21.3091226 19.7852581,22.4139941 C19.7735992,23.3322201 20.0512932,23.6271897 20.5065207,24.0974665 C21.0960022,24.7079891 22.4834125,24.866725 22.4834125,24.866725 C22.4834125,24.866725 21.0816936,25.900427 20.659853,27.0189044 C20.2373059,28.1363352 20.7776787,29.5429792 22.6037112,29.1958535 C24.4032463,28.8520421 25.3548606,28.0398726 25.6943822,26.8416784 C26.0450327,25.6002243 25.8473612,24.2350958 22.8243473,24.0446127" id="Fill-12" fill="#000000"></path>
                        <path d="M23.6856051,24.2472888 C24.9135002,23.4412245 27.9312147,21.2822422 28.9550789,20.7106186 C29.9794732,20.1377739 30.740482,19.988632 31.3847251,20.4121602 C32.0286149,20.8351652 31.8966572,21.5745953 31.4559151,21.8838686 C31.0144664,22.1929674 30.5523496,22.3380974 30.2614068,22.0385924 C29.9708173,21.7397852 29.132259,21.8116525 28.4717641,22.3178629 C27.8110926,22.8242478 27.2906813,24.1300684 27.7323066,25.1977852 C28.1746386,26.2658509 29.2585639,26.3459166 30.1667223,25.93268 C31.0754107,25.5208389 31.506437,24.9532273 31.9842757,24.2132739 C32.4612311,23.4708785 32.6613757,23.2228319 32.6613757,23.2228319 C32.6613757,23.2228319 32.9805825,24.2783382 32.2872307,25.3024463 C31.5944088,26.3279498 30.2179508,27.2569907 28.7498115,27.174483 C27.2820254,27.0918008 26.5489273,26.6229194 26.4141432,25.3783255 C26.2791825,24.1335571 26.8386335,23.2688827 27.4095668,22.6794667 C27.4095668,22.6794667 26.6278899,23.2256228 26.0677323,23.6249046 C25.507928,24.0245352 24.6614205,24.6762245 24.6614205,24.6762245 L23.6856051,24.2472888 Z" id="Fill-14" fill="#000000"></path>
                        <path d="M36.0280095,19.1879927 C34.9041613,19.5297109 33.4247163,20.4226438 32.6596445,21.8280668 C31.8938661,23.234362 31.7977684,25.2696699 33.5250536,25.7558203 C35.252692,26.2419708 37.2189848,24.7917179 37.2189848,24.7917179 C37.2189848,24.7917179 38.0884568,25.6188888 39.056323,25.4118345 C40.0252491,25.2025124 40.6057214,24.8825986 41.3102022,24.1621819 C42.0145064,23.4412419 43.6356248,19.3167257 43.8626202,18.8942441 C44.0906755,18.472809 42.3807021,20.259547 41.259327,21.9196452 C40.1372453,23.5799178 40.2873979,24.6366452 38.8770231,24.3613867 C37.9867064,24.188696 37.752115,23.3240216 38.0494172,22.3836424 C38.346896,21.4430887 38.8378068,19.7163564 38.2347232,19.4564482 C37.6323462,19.1975866 37.1313663,19.7664192 37.0370352,20.9405414 C36.9423507,22.1158846 36.8406002,23.092023 35.869731,24.1400287 C34.8983318,25.1878599 33.431959,25.1477398 33.2229818,24.2387589 C33.0138281,23.3304757 33.6665504,22.169785 34.647312,21.3745357 C35.6277203,20.5810308 36.4957791,20.4805562 36.753865,19.9368422 C37.0117742,19.3927794 36.4108104,19.0718189 36.0280095,19.1879927" id="Fill-16" fill="#000000"></path>
                        <g id="Group-20" transform="translate(35.506680, 13.539472)">
                            <mask id="mask-2" fill="white">
                                <use xlink:href="#path-1"></use>
                            </mask>
                            <g id="Clip-19"></g>
                            <path d="M16.0767179,5.22300339 C16.7022361,5.00426186 16.9460133,5.63693771 16.3065398,5.92388333 C16.0405046,6.04302246 15.8142158,6.1019815 15.5335187,6.15204435 C15.2529983,6.2021072 14.9827236,6.17210438 14.9827236,6.17210438 C14.9827236,6.17210438 15.4527896,5.44069831 16.0767179,5.22300339 M26.412518,1.21239322 C25.5222013,-0.256698588 23.3826147,-0.188843362 22.6618821,0.412085311 C21.9400896,1.01231624 22.4050328,1.59196384 22.851781,1.71284732 C23.2972927,1.83442853 23.7431577,1.33502105 24.2063344,1.89199209 C24.670041,2.44809096 25.2987389,3.69460367 24.8738953,5.06252316 C24.4675999,6.37357684 23.9206911,7.93040946 21.180494,9.22681059 C18.4406502,10.5221651 16.8937249,10.7656764 15.3082898,9.74296384 C14.7859353,9.29536356 14.596743,8.82787768 14.5939166,8.10868206 C14.5900303,7.28761638 14.7341768,6.96421384 14.7341768,6.96421384 C14.7341768,6.96421384 16.2212177,6.96595819 17.3009034,6.21449209 C18.3793526,5.46354929 18.3986075,3.79420607 16.6612533,3.99620184 C15.4165763,4.1399363 14.314986,4.93134802 13.8431535,6.34427175 C13.370791,7.75702105 13.5082248,9.13279011 13.5082248,9.13279011 C13.5082248,9.13279011 13.3911057,9.64929223 12.8399573,10.1769582 C12.8399573,10.1787025 12.8394273,10.180098 12.8394273,10.1814935 C12.2824494,10.6622364 11.5585371,11.1892047 10.8704848,11.4000966 C9.47742172,11.8286835 10.0216808,9.54341017 10.6120456,8.66949068 C11.5391056,7.29808249 11.8457702,6.00865876 11.167787,5.29242853 C10.4415782,4.52526328 8.36311259,5.1657887 8.36311259,5.1657887 C8.36311259,5.1657887 8.4251168,4.48880636 8.32566276,4.18860367 C8.22656203,3.88717994 7.68830903,3.64628517 7.01615522,4.23744548 C6.34523796,4.82808249 6.508816,5.52826469 6.12548518,6.56092006 C5.89354353,7.18574633 5.6707877,8.46400621 5.1874729,9.65644407 C5.01364915,10.0878219 2.48931855,16.2134568 1.27272898,18.3713925 C0.571781197,19.6159864 -0.71935473,22.4531722 1.00333751,22.9885133 C2.40752953,23.4252986 3.07703359,19.9163636 4.03712714,16.8314801 C4.99775064,13.746771 5.96296704,11.4979547 6.80417504,9.30111992 C7.64432314,7.10602952 7.8939298,6.19024562 9.05381467,6.14698573 C10.340181,6.09884167 10.0213275,7.1383 9.69699786,7.89028941 C9.37355144,8.64227881 9.24653998,8.66408319 8.97856171,9.73110226 C8.58692833,11.2907258 9.39881241,12.6303869 11.2838461,12.2912852 C13.1436189,11.9574165 13.6230474,11.1574575 14.3561455,10.6273494 C14.5274961,10.8024822 14.7854054,11.0086644 15.1201574,11.1585041 C15.1212173,11.1585041 15.1221005,11.1595507 15.1231604,11.1595507 C15.1553108,11.1742032 15.1860479,11.1892047 15.2196114,11.2021129 C15.2302104,11.2056016 15.2390429,11.2127534 15.2498186,11.2155444 C15.302107,11.2321157 15.3478594,11.2424073 15.3978514,11.2570599 C15.4709846,11.2792131 15.5419979,11.3029363 15.6213138,11.3179377 C16.782082,11.6195359 17.4991049,11.5023155 18.4567254,11.3589299 C20.7991063,11.0086644 22.8922339,9.87483672 24.7899864,8.01047514 C27.2720977,5.57257119 27.4005223,2.84283743 26.412518,1.21239322" id="Fill-18" fill="#000000" mask="url(#mask-2)"></path>
                        </g>
                    </g>
                </g>
            </g>
        </g>
    </g>
</svg>